<svg xmlns="http://www.w3.org/2000/svg" viewBox="0 0 273 94"><defs><style>.cls-1{fill:#3857e8;}.cls-2{fill:#fff;}</style></defs><g id="Layer_2" data-name="Layer 2"><g id="Layer_3" data-name="Layer 3"><rect class="cls-1" width="273" height="94" rx="15.36"/><g id="Layer_2-2" data-name="Layer 2"><g id="Layer_1-2" data-name="Layer 1-2"><path class="cls-2" d="M42.49,66.12V56.26a44.54,44.54,0,0,0-7.73.79C36.6,62.07,39.37,65.53,42.49,66.12Z"/><path class="cls-2" d="M42.49,32.51a46.42,46.42,0,0,1-8.32-.87,41.14,41.14,0,0,0-1.64,10.85h10Z"/><path class="cls-2" d="M42.49,44.39h-10a41.54,41.54,0,0,0,1.63,10.85,45.63,45.63,0,0,1,8.32-.88Z"/><path class="cls-2" d="M42.49,20.75c-3.12.6-5.89,4.06-7.74,9.08a45.64,45.64,0,0,0,7.74.78Z"/><path class="cls-2" d="M32.26,55.68a43.56,43.56,0,0,1-1.62-11.29H21.23c.4,2,.86,4.25,1.42,6.62a28.64,28.64,0,0,0,1.44,4.4,21.56,21.56,0,0,0,2.1,2.85A19,19,0,0,1,32.26,55.68Z"/><path class="cls-2" d="M32.84,57.49a18.88,18.88,0,0,0-5.36,2.18,22.69,22.69,0,0,0,10.07,5.76A20.71,20.71,0,0,1,32.84,57.49Z"/><path class="cls-2" d="M54.62,31.21a44.29,44.29,0,0,1,1.62,11.28H66c0-.26.09-.52.13-.78a22.68,22.68,0,0,0-5.39-13A20.26,20.26,0,0,1,54.62,31.21Z"/><path class="cls-2" d="M37.56,21.43a22.86,22.86,0,0,0-10.13,5.82,19.61,19.61,0,0,0,5.41,2.15A20.74,20.74,0,0,1,37.56,21.43Z"/><path class="cls-2" d="M20.73,41.71c.05.25.09.52.14.78h9.77a43.42,43.42,0,0,1,1.62-11.28,19.49,19.49,0,0,1-6.14-2.56A22.68,22.68,0,0,0,20.73,41.71Z"/><path class="cls-2" d="M67,36a65.43,65.43,0,0,0,.62-9.82s-2.5-.75-9.51-2.62A24.81,24.81,0,0,1,67,36Z"/><path class="cls-2" d="M54,29.4a19.42,19.42,0,0,0,5.4-2.15,22.77,22.77,0,0,0-10.12-5.82A20.86,20.86,0,0,1,54,29.4Z"/><path class="cls-2" d="M65.66,44.39H56.24a44,44,0,0,1-1.63,11.29,19,19,0,0,1,6.08,2.58,22.42,22.42,0,0,0,2.09-2.85A26.62,26.62,0,0,0,64.22,51C64.8,48.64,65.26,46.43,65.66,44.39Z"/><path class="cls-2" d="M54,57.49a20.91,20.91,0,0,1-4.71,7.95,22.83,22.83,0,0,0,10.07-5.76A18.47,18.47,0,0,0,54,57.49Z"/><path class="cls-2" d="M41.83,68.06a24.52,24.52,0,0,1-12.69-4.54c4.6,5.43,10.39,9.07,14.3,11.55,3.89-2.48,9.68-6.12,14.28-11.52A24.63,24.63,0,0,1,41.83,68.06Z"/><path class="cls-2" d="M28.77,23.61c-7,1.86-9.49,2.61-9.49,2.61A65.47,65.47,0,0,0,19.9,36,24.79,24.79,0,0,1,28.77,23.61Z"/><path class="cls-2" d="M44.39,54.36a45.63,45.63,0,0,1,8.32.88,41.12,41.12,0,0,0,1.62-10.85H44.38Z"/><path class="cls-2" d="M52.72,31.64a47.54,47.54,0,0,1-8.32.86v10h10A41.48,41.48,0,0,0,52.72,31.64Z"/><path class="cls-2" d="M44.39,20.75v9.86a45.63,45.63,0,0,0,7.73-.78C50.29,24.81,47.5,21.35,44.39,20.75Z"/><path class="cls-2" d="M52.12,57.05a44.64,44.64,0,0,0-7.73-.79v9.86C47.5,65.53,50.29,62.07,52.12,57.05Z"/></g></g><path class="cls-2" d="M108.9,72.78a22.3,22.3,0,0,1-5.66,2,29.67,29.67,0,0,1-6,.65,17.17,17.17,0,0,1-6-1,13.81,13.81,0,0,1-4.75-2.92,13.47,13.47,0,0,1-3.13-4.62,17,17,0,0,1,0-12.11,13.41,13.41,0,0,1,3.13-4.63,13.81,13.81,0,0,1,4.75-2.92,17.17,17.17,0,0,1,6-1,22.91,22.91,0,0,1,6.16.81,12.07,12.07,0,0,1,4.93,2.77L104,54.52a8.83,8.83,0,0,0-2.84-2,10.31,10.31,0,0,0-3.93-.65,9.25,9.25,0,0,0-3.56.65,8,8,0,0,0-4.48,4.72,10.42,10.42,0,0,0-.61,3.59,10,10,0,0,0,.61,3.59,8.3,8.3,0,0,0,1.75,2.83,8,8,0,0,0,2.73,1.87,9.21,9.21,0,0,0,3.56.65,12,12,0,0,0,3.47-.45,13.6,13.6,0,0,0,2.31-.93V63.9H98V58.24H108.9Z"/><path class="cls-2" d="M112.8,60.83a15.74,15.74,0,0,1,1.12-6.06A13.35,13.35,0,0,1,117,50.15a13.79,13.79,0,0,1,4.76-2.93,18.15,18.15,0,0,1,12,0,13.84,13.84,0,0,1,4.75,2.93,13.37,13.37,0,0,1,3.13,4.62,17,17,0,0,1,0,12.11,13.41,13.41,0,0,1-3.13,4.63,13.81,13.81,0,0,1-4.75,2.92,18.15,18.15,0,0,1-12,0A13.76,13.76,0,0,1,117,71.51a13.36,13.36,0,0,1-3.12-4.6A15.62,15.62,0,0,1,112.8,60.83Zm6.37,0a10.22,10.22,0,0,0,.6,3.59,8.36,8.36,0,0,0,1.76,2.84,8.16,8.16,0,0,0,2.73,1.87,9.85,9.85,0,0,0,7.13,0,8,8,0,0,0,2.7-1.87,8.34,8.34,0,0,0,1.75-2.84,10,10,0,0,0,.61-3.59,10.17,10.17,0,0,0-.61-3.58,8.23,8.23,0,0,0-1.75-2.85,7.88,7.88,0,0,0-2.73-1.87,9.78,9.78,0,0,0-7.14,0,7.88,7.88,0,0,0-2.73,1.87,8.38,8.38,0,0,0-1.75,2.85,10.37,10.37,0,0,0-.57,3.58Z"/><path class="cls-2" d="M167.82,46.9h5.07L185,74.75h-6.93l-2.39-5.9H164.86l-2.32,5.9h-6.76ZM170.18,55l-3.39,8.65h6.8Z"/><path class="cls-2" d="M218.26,74.75H201.4a18.28,18.28,0,0,1-6-1A13.36,13.36,0,0,1,190.58,71a13,13,0,0,1-3.14-4.48,15,15,0,0,1-1.14-6,14.22,14.22,0,0,1,1.16-5.78,13.91,13.91,0,0,1,3.16-4.54,14.42,14.42,0,0,1,4.72-2.92,16.22,16.22,0,0,1,5.84-1A16,16,0,0,1,207,47.25a14.36,14.36,0,0,1,4.71,3,13.67,13.67,0,0,1,3.17,4.5,14.09,14.09,0,0,1,1.16,5.76,12.92,12.92,0,0,1-.33,2.91,11,11,0,0,1-1,2.67A8.71,8.71,0,0,1,213,68.31a8.6,8.6,0,0,1-2.48,1.63V70h7.79Zm-25.6-14.27a8.55,8.55,0,0,0,5.19,7.94,8.43,8.43,0,0,0,6.61,0A8.5,8.5,0,0,0,209,63.86a8.89,8.89,0,0,0,0-6.76,8.57,8.57,0,0,0-4.52-4.57,8.52,8.52,0,0,0-6.61,0,8.85,8.85,0,0,0-2.69,1.83A8.66,8.66,0,0,0,192.66,60.48Z"/><path class="cls-2" d="M235.06,53.71a4.41,4.41,0,0,0-2-1.4,7.15,7.15,0,0,0-2.42-.45,5.91,5.91,0,0,0-1.38.16,5.32,5.32,0,0,0-1.33.49,3,3,0,0,0-1,.89,2.48,2.48,0,0,0,.55,3.28,9.31,9.31,0,0,0,2.38,1.14c1,.31,2,.65,3.09.94A13,13,0,0,1,236,60.1a7.33,7.33,0,0,1,2.38,2.32,7.07,7.07,0,0,1,.94,3.89,9,9,0,0,1-.86,4,8.19,8.19,0,0,1-2.35,2.87,9.65,9.65,0,0,1-3.41,1.69,15.68,15.68,0,0,1-9.15-.27A12.64,12.64,0,0,1,219.2,72l4.37-4.79A6.45,6.45,0,0,0,226,69.13a6.73,6.73,0,0,0,4.48.51,5.26,5.26,0,0,0,1.38-.53,3.05,3.05,0,0,0,1-.91,2.25,2.25,0,0,0,.38-1.3,2.37,2.37,0,0,0-1-2,8.53,8.53,0,0,0-2.42-1.24c-1-.34-2-.68-3.14-1a14,14,0,0,1-3.15-1.37A7.64,7.64,0,0,1,221.07,59a6.55,6.55,0,0,1-1-3.74,8.47,8.47,0,0,1,.89-3.92,8.6,8.6,0,0,1,2.36-2.83,10.57,10.57,0,0,1,3.4-1.71,14.08,14.08,0,0,1,4-.57,15.58,15.58,0,0,1,4.54.65,10.58,10.58,0,0,1,4,2.24Z"/><path class="cls-2" d="M90.77,21.57h1.66l6.32,14.86H96.69l-1.51-3.65H87.75l-1.54,3.65h-2Zm.8,2.27h0l-3.08,7.3h6.07Z"/><path class="cls-2" d="M100.58,20.56h1.63V36.43h-1.63Z"/><path class="cls-2" d="M105.26,22.76a1.14,1.14,0,0,1,.35-.84,1.15,1.15,0,0,1,.85-.35,1.18,1.18,0,0,1,1.19,1.19,1.21,1.21,0,0,1-.33.87,1.18,1.18,0,0,1-.86.33,1.13,1.13,0,0,1-1.2-1.2Zm.38,3.85h1.63v9.82h-1.63Z"/><path class="cls-2" d="M120.34,36A5.57,5.57,0,0,1,119,40.08a5.34,5.34,0,0,1-4,1.39,7.64,7.64,0,0,1-2.61-.42,6.22,6.22,0,0,1-2.22-1.44l1.18-1.35A5.5,5.5,0,0,0,113,39.53a4.42,4.42,0,0,0,2,.43,4.57,4.57,0,0,0,1.82-.32,2.91,2.91,0,0,0,1.14-.88,3.41,3.41,0,0,0,.59-1.28A6.54,6.54,0,0,0,118.7,36V34.73h0a3.6,3.6,0,0,1-1.54,1.39,4.57,4.57,0,0,1-1.93.44,5.83,5.83,0,0,1-2.12-.38,4.9,4.9,0,0,1-1.66-1,4.69,4.69,0,0,1-1.07-1.59,5.34,5.34,0,0,1-.38-2,5.9,5.9,0,0,1,.38-2.16,4.52,4.52,0,0,1,1.06-1.63,4.79,4.79,0,0,1,1.65-1,6.08,6.08,0,0,1,2.14-.36,4.36,4.36,0,0,1,1,.12,4.45,4.45,0,0,1,1,.36,3.59,3.59,0,0,1,.85.61,3.19,3.19,0,0,1,.63.85h0V26.61h1.64Zm-8.61-4.47a3.6,3.6,0,0,0,.27,1.4,3.51,3.51,0,0,0,.75,1.11,3.7,3.7,0,0,0,1.1.75,3.38,3.38,0,0,0,1.34.27,3.67,3.67,0,0,0,1.49-.29,3.27,3.27,0,0,0,1.79-1.93,4,4,0,0,0,.23-1.35,4.26,4.26,0,0,0-.25-1.46,3.35,3.35,0,0,0-.72-1.14,3,3,0,0,0-1.11-.75,3.68,3.68,0,0,0-1.43-.26,3.46,3.46,0,0,0-1.42.28,3.29,3.29,0,0,0-1.09.78,3.62,3.62,0,0,0-.7,1.15A4,4,0,0,0,111.73,31.52Z"/><path class="cls-2" d="M123.36,28.94c0-.45,0-.87,0-1.26s0-.75,0-1.07h1.55c0,.26,0,.53,0,.79s0,.54,0,.82h0a3.19,3.19,0,0,1,.48-.69,3.59,3.59,0,0,1,.72-.6,4.34,4.34,0,0,1,1-.42,4.06,4.06,0,0,1,1.13-.16,4.26,4.26,0,0,1,1.67.3,3,3,0,0,1,1.16.82,3.32,3.32,0,0,1,.69,1.27,6,6,0,0,1,.22,1.63v6.06h-1.64v-5.9a3.12,3.12,0,0,0-.55-2,2,2,0,0,0-1.7-.71,3.19,3.19,0,0,0-1.37.27,2.41,2.41,0,0,0-1,.78,3.52,3.52,0,0,0-.54,1.19,6.2,6.2,0,0,0-.18,1.54v4.78h-1.64Z"/><path class="cls-2" d="M135.25,33.85a4,4,0,0,0,1.06,1,2.7,2.7,0,0,0,1.46.35,3.33,3.33,0,0,0,.76-.08,2.33,2.33,0,0,0,.71-.27,1.64,1.64,0,0,0,.5-.48,1.14,1.14,0,0,0,.19-.68,1.11,1.11,0,0,0-.18-.65,1.62,1.62,0,0,0-.47-.43,2.7,2.7,0,0,0-.67-.28l-.78-.19c-.46-.1-.9-.21-1.32-.34a4.34,4.34,0,0,1-1.11-.49,2.36,2.36,0,0,1-.75-.79,2.39,2.39,0,0,1-.29-1.24,2.51,2.51,0,0,1,.32-1.26,2.78,2.78,0,0,1,.84-.9,4.13,4.13,0,0,1,1.18-.55,5,5,0,0,1,1.34-.19,4.63,4.63,0,0,1,1.94.42,3,3,0,0,1,1.4,1.37L140,29a2.5,2.5,0,0,0-.83-.85,2.34,2.34,0,0,0-1.25-.32,2.68,2.68,0,0,0-.68.08,2.3,2.3,0,0,0-.62.25,1.54,1.54,0,0,0-.45.43,1.06,1.06,0,0,0-.18.6.8.8,0,0,0,.2.54,2.22,2.22,0,0,0,.55.39,4.63,4.63,0,0,0,.8.29q.45.12.93.21a8.05,8.05,0,0,1,1.24.33,3.71,3.71,0,0,1,1,.53,2.45,2.45,0,0,1,.69.84,2.74,2.74,0,0,1,.25,1.24,2.88,2.88,0,0,1-.33,1.43,2.8,2.8,0,0,1-.89.95,3.94,3.94,0,0,1-1.26.54,6.3,6.3,0,0,1-1.44.17,5.55,5.55,0,0,1-2.18-.39,4,4,0,0,1-1.65-1.44Z"/><path class="cls-2" d="M160.36,36.43h-1.62L156,28.88h0l-2.48,7.55h-1.68l-3.19-9.82h1.81l2.24,7.56h0l2.55-7.56h1.72l2.58,7.56h0l2.23-7.56h1.76Z"/><path class="cls-2" d="M165.15,22.76a1.18,1.18,0,0,1,.35-.84,1.15,1.15,0,0,1,.85-.35,1.18,1.18,0,0,1,1.19,1.19,1.21,1.21,0,0,1-.33.87,1.18,1.18,0,0,1-.86.33,1.15,1.15,0,0,1-1.2-1.2Zm.38,3.85h1.64v9.82h-1.64Z"/><path class="cls-2" d="M175.8,28h-2.9v4.92c0,.32,0,.62,0,.89a1.73,1.73,0,0,0,.17.71,1,1,0,0,0,.44.49,1.6,1.6,0,0,0,.84.17,3.08,3.08,0,0,0,.73-.08,2.92,2.92,0,0,0,.72-.25l.06,1.49a3.36,3.36,0,0,1-.93.27,5.76,5.76,0,0,1-1,.09,3.63,3.63,0,0,1-1.41-.23,1.93,1.93,0,0,1-.82-.66,2.57,2.57,0,0,1-.39-1,9.54,9.54,0,0,1-.09-1.37V28h-2.14V26.61h2.14v-2.8h1.64v2.8h2.9Z"/><path class="cls-2" d="M177.83,20.56h1.64V28h0a3,3,0,0,1,.47-.58,3.51,3.51,0,0,1,.7-.51,4.69,4.69,0,0,1,.91-.38,3.79,3.79,0,0,1,1.07-.15,4.22,4.22,0,0,1,1.67.3,3.09,3.09,0,0,1,1.17.82,3.3,3.3,0,0,1,.68,1.27,5.64,5.64,0,0,1,.22,1.63v6.06h-1.64v-5.9a3.18,3.18,0,0,0-.54-2,2,2,0,0,0-1.7-.71,3.24,3.24,0,0,0-1.38.27,2.38,2.38,0,0,0-.94.78,3.35,3.35,0,0,0-.55,1.19,6.2,6.2,0,0,0-.18,1.54v4.78h-1.64Z"/></g></g></svg>